<?xml version="1.0" encoding="UTF-8" standalone="no"?>
<!DOCTYPE svg PUBLIC "-//W3C//DTD SVG 1.1//EN"
 "http://www.w3.org/Graphics/SVG/1.1/DTD/svg11.dtd">
<!-- Generated by graphviz version 6.0.1 (20220911.1526)
 -->
<!-- Title: G Pages: 1 -->
<svg width="1373pt" height="290pt"
 viewBox="0.00 0.00 1373.20 290.20" xmlns="http://www.w3.org/2000/svg" xmlns:xlink="http://www.w3.org/1999/xlink">
<g id="graph0" class="graph" transform="scale(1 1) rotate(0) translate(21.6 268.6)">
<title>G</title>
<polygon fill="#111111" stroke="none" points="-21.6,21.6 -21.6,-268.6 1351.6,-268.6 1351.6,21.6 -21.6,21.6"/>
<!-- application/errors.ts -->
<g id="node1" class="node">
<title>application/errors.ts</title>
<path fill="none" stroke="#cfffac" d="M1210.83,-125C1210.83,-125 1092.17,-125 1092.17,-125 1088.33,-125 1084.5,-121.17 1084.5,-117.33 1084.5,-117.33 1084.5,-109.67 1084.5,-109.67 1084.5,-105.83 1088.33,-102 1092.17,-102 1092.17,-102 1210.83,-102 1210.83,-102 1214.67,-102 1218.5,-105.83 1218.5,-109.67 1218.5,-109.67 1218.5,-117.33 1218.5,-117.33 1218.5,-121.17 1214.67,-125 1210.83,-125"/>
<text text-anchor="middle" x="1151.5" y="-109.8" font-family="Arial" font-size="14.00" fill="#cfffac">application/errors.ts</text>
</g>
<!-- application/makeDTO.ts -->
<g id="node2" class="node">
<title>application/makeDTO.ts</title>
<path fill="none" stroke="#c6c5fe" d="M525.83,-125C525.83,-125 379.17,-125 379.17,-125 375.33,-125 371.5,-121.17 371.5,-117.33 371.5,-117.33 371.5,-109.67 371.5,-109.67 371.5,-105.83 375.33,-102 379.17,-102 379.17,-102 525.83,-102 525.83,-102 529.67,-102 533.5,-105.83 533.5,-109.67 533.5,-109.67 533.5,-117.33 533.5,-117.33 533.5,-121.17 529.67,-125 525.83,-125"/>
<text text-anchor="middle" x="452.5" y="-109.8" font-family="Arial" font-size="14.00" fill="#c6c5fe">application/makeDTO.ts</text>
</g>
<!-- application/makeDTO.ts&#45;&gt;application/errors.ts -->
<g id="edge1" class="edge">
<title>application/makeDTO.ts&#45;&gt;application/errors.ts</title>
<path fill="none" stroke="#757575" d="M533.79,-113.5C669.33,-113.5 941.68,-113.5 1074.36,-113.5"/>
<polygon fill="#757575" stroke="#757575" points="1074.44,-117 1084.44,-113.5 1074.44,-110 1074.44,-117"/>
</g>
<!-- infrastructure/adapters/web/AddSomething.ts -->
<g id="node3" class="node">
<title>infrastructure/adapters/web/AddSomething.ts</title>
<path fill="none" stroke="#c6c5fe" d="M279.33,-145C279.33,-145 7.67,-145 7.67,-145 3.83,-145 0,-141.17 0,-137.33 0,-137.33 0,-129.67 0,-129.67 0,-125.83 3.83,-122 7.67,-122 7.67,-122 279.33,-122 279.33,-122 283.17,-122 287,-125.83 287,-129.67 287,-129.67 287,-137.33 287,-137.33 287,-141.17 283.17,-145 279.33,-145"/>
<text text-anchor="middle" x="143.5" y="-129.8" font-family="Arial" font-size="14.00" fill="#c6c5fe">infrastructure/adapters/web/AddSomething.ts</text>
</g>
<!-- infrastructure/adapters/web/AddSomething.ts&#45;&gt;application/makeDTO.ts -->
<g id="edge2" class="edge">
<title>infrastructure/adapters/web/AddSomething.ts&#45;&gt;application/makeDTO.ts</title>
<path fill="none" stroke="#757575" d="M287.21,-124.2C312.31,-122.57 337.8,-120.91 360.97,-119.4"/>
<polygon fill="#757575" stroke="#757575" points="361.34,-122.88 371.09,-118.74 360.88,-115.9 361.34,-122.88"/>
</g>
<!-- infrastructure/frameworks/end.ts -->
<g id="node4" class="node">
<title>infrastructure/frameworks/end.ts</title>
<path fill="none" stroke="#cfffac" d="M549.83,-207C549.83,-207 355.17,-207 355.17,-207 351.33,-207 347.5,-203.17 347.5,-199.33 347.5,-199.33 347.5,-191.67 347.5,-191.67 347.5,-187.83 351.33,-184 355.17,-184 355.17,-184 549.83,-184 549.83,-184 553.67,-184 557.5,-187.83 557.5,-191.67 557.5,-191.67 557.5,-199.33 557.5,-199.33 557.5,-203.17 553.67,-207 549.83,-207"/>
<text text-anchor="middle" x="452.5" y="-191.8" font-family="Arial" font-size="14.00" fill="#cfffac">infrastructure/frameworks/end.ts</text>
</g>
<!-- infrastructure/adapters/web/AddSomething.ts&#45;&gt;infrastructure/frameworks/end.ts -->
<g id="edge3" class="edge">
<title>infrastructure/adapters/web/AddSomething.ts&#45;&gt;infrastructure/frameworks/end.ts</title>
<path fill="none" stroke="#757575" d="M202.65,-145.02C228.58,-150.45 259.44,-157.3 287,-164.5 303.19,-168.73 306.69,-171.76 323,-175.5 333.72,-177.96 345.02,-180.21 356.28,-182.23"/>
<polygon fill="#757575" stroke="#757575" points="355.7,-185.69 366.16,-183.96 356.91,-178.79 355.7,-185.69"/>
</g>
<!-- infrastructure/frameworks/getRepo.ts -->
<g id="node5" class="node">
<title>infrastructure/frameworks/getRepo.ts</title>
<path fill="none" stroke="#c6c5fe" d="M564.33,-166C564.33,-166 340.67,-166 340.67,-166 336.83,-166 333,-162.17 333,-158.33 333,-158.33 333,-150.67 333,-150.67 333,-146.83 336.83,-143 340.67,-143 340.67,-143 564.33,-143 564.33,-143 568.17,-143 572,-146.83 572,-150.67 572,-150.67 572,-158.33 572,-158.33 572,-162.17 568.17,-166 564.33,-166"/>
<text text-anchor="middle" x="452.5" y="-150.8" font-family="Arial" font-size="14.00" fill="#c6c5fe">infrastructure/frameworks/getRepo.ts</text>
</g>
<!-- infrastructure/adapters/web/AddSomething.ts&#45;&gt;infrastructure/frameworks/getRepo.ts -->
<g id="edge4" class="edge">
<title>infrastructure/adapters/web/AddSomething.ts&#45;&gt;infrastructure/frameworks/getRepo.ts</title>
<path fill="none" stroke="#757575" d="M287.21,-143.26C298.96,-144.07 310.79,-144.88 322.43,-145.67"/>
<polygon fill="#757575" stroke="#757575" points="322.39,-149.18 332.61,-146.37 322.87,-142.19 322.39,-149.18"/>
</g>
<!-- usecases/AddSomethingUsecase.ts -->
<g id="node6" class="node">
<title>usecases/AddSomethingUsecase.ts</title>
<path fill="none" stroke="#c6c5fe" d="M886.33,-85C886.33,-85 668.67,-85 668.67,-85 664.83,-85 661,-81.17 661,-77.33 661,-77.33 661,-69.67 661,-69.67 661,-65.83 664.83,-62 668.67,-62 668.67,-62 886.33,-62 886.33,-62 890.17,-62 894,-65.83 894,-69.67 894,-69.67 894,-77.33 894,-77.33 894,-81.17 890.17,-85 886.33,-85"/>
<text text-anchor="middle" x="777.5" y="-69.8" font-family="Arial" font-size="14.00" fill="#c6c5fe">usecases/AddSomethingUsecase.ts</text>
</g>
<!-- infrastructure/adapters/web/AddSomething.ts&#45;&gt;usecases/AddSomethingUsecase.ts -->
<g id="edge5" class="edge">
<title>infrastructure/adapters/web/AddSomething.ts&#45;&gt;usecases/AddSomethingUsecase.ts</title>
<path fill="none" stroke="#757575" d="M186.32,-121.93C222.26,-112.52 275.62,-99.8 323,-93.5 433.12,-78.85 559.48,-74.27 650.79,-73.11"/>
<polygon fill="#757575" stroke="#757575" points="650.95,-76.61 660.91,-73 650.87,-69.61 650.95,-76.61"/>
</g>
<!-- infrastructure/repositories/DynamoDbRepository.ts -->
<g id="node14" class="node">
<title>infrastructure/repositories/DynamoDbRepository.ts</title>
<path fill="none" stroke="#c6c5fe" d="M929.33,-206C929.33,-206 625.67,-206 625.67,-206 621.83,-206 618,-202.17 618,-198.33 618,-198.33 618,-190.67 618,-190.67 618,-186.83 621.83,-183 625.67,-183 625.67,-183 929.33,-183 929.33,-183 933.17,-183 937,-186.83 937,-190.67 937,-190.67 937,-198.33 937,-198.33 937,-202.17 933.17,-206 929.33,-206"/>
<text text-anchor="middle" x="777.5" y="-190.8" font-family="Arial" font-size="14.00" fill="#c6c5fe">infrastructure/repositories/DynamoDbRepository.ts</text>
</g>
<!-- infrastructure/frameworks/getRepo.ts&#45;&gt;infrastructure/repositories/DynamoDbRepository.ts -->
<g id="edge11" class="edge">
<title>infrastructure/frameworks/getRepo.ts&#45;&gt;infrastructure/repositories/DynamoDbRepository.ts</title>
<path fill="none" stroke="#757575" d="M546.49,-166.02C586.26,-170.94 632.84,-176.71 673.64,-181.76"/>
<polygon fill="#757575" stroke="#757575" points="673.25,-185.24 683.61,-183 674.11,-178.29 673.25,-185.24"/>
</g>
<!-- infrastructure/repositories/LocalRepository.ts -->
<g id="node15" class="node">
<title>infrastructure/repositories/LocalRepository.ts</title>
<path fill="none" stroke="#cfffac" d="M911.33,-165C911.33,-165 643.67,-165 643.67,-165 639.83,-165 636,-161.17 636,-157.33 636,-157.33 636,-149.67 636,-149.67 636,-145.83 639.83,-142 643.67,-142 643.67,-142 911.33,-142 911.33,-142 915.17,-142 919,-145.83 919,-149.67 919,-149.67 919,-157.33 919,-157.33 919,-161.17 915.17,-165 911.33,-165"/>
<text text-anchor="middle" x="777.5" y="-149.8" font-family="Arial" font-size="14.00" fill="#cfffac">infrastructure/repositories/LocalRepository.ts</text>
</g>
<!-- infrastructure/frameworks/getRepo.ts&#45;&gt;infrastructure/repositories/LocalRepository.ts -->
<g id="edge12" class="edge">
<title>infrastructure/frameworks/getRepo.ts&#45;&gt;infrastructure/repositories/LocalRepository.ts</title>
<path fill="none" stroke="#757575" d="M572.4,-154.13C589.69,-154.08 607.68,-154.02 625.51,-153.97"/>
<polygon fill="#757575" stroke="#757575" points="625.98,-157.47 635.97,-153.94 625.96,-150.47 625.98,-157.47"/>
</g>
<!-- usecases/AddSomethingUsecase.ts&#45;&gt;application/errors.ts -->
<g id="edge15" class="edge">
<title>usecases/AddSomethingUsecase.ts&#45;&gt;application/errors.ts</title>
<path fill="none" stroke="#757575" d="M885.6,-85.02C945.89,-91.5 1019.76,-99.44 1074.16,-105.29"/>
<polygon fill="#757575" stroke="#757575" points="1074.11,-108.81 1084.43,-106.4 1074.86,-101.85 1074.11,-108.81"/>
</g>
<!-- infrastructure/adapters/web/Authorizer.ts -->
<g id="node7" class="node">
<title>infrastructure/adapters/web/Authorizer.ts</title>
<path fill="none" stroke="#c6c5fe" d="M574.33,-44C574.33,-44 330.67,-44 330.67,-44 326.83,-44 323,-40.17 323,-36.33 323,-36.33 323,-28.67 323,-28.67 323,-24.83 326.83,-21 330.67,-21 330.67,-21 574.33,-21 574.33,-21 578.17,-21 582,-24.83 582,-28.67 582,-28.67 582,-36.33 582,-36.33 582,-40.17 578.17,-44 574.33,-44"/>
<text text-anchor="middle" x="452.5" y="-28.8" font-family="Arial" font-size="14.00" fill="#c6c5fe">infrastructure/adapters/web/Authorizer.ts</text>
</g>
<!-- usecases/AuthorizeUsecase.ts -->
<g id="node8" class="node">
<title>usecases/AuthorizeUsecase.ts</title>
<path fill="none" stroke="#c6c5fe" d="M870.33,-44C870.33,-44 684.67,-44 684.67,-44 680.83,-44 677,-40.17 677,-36.33 677,-36.33 677,-28.67 677,-28.67 677,-24.83 680.83,-21 684.67,-21 684.67,-21 870.33,-21 870.33,-21 874.17,-21 878,-24.83 878,-28.67 878,-28.67 878,-36.33 878,-36.33 878,-40.17 874.17,-44 870.33,-44"/>
<text text-anchor="middle" x="777.5" y="-28.8" font-family="Arial" font-size="14.00" fill="#c6c5fe">usecases/AuthorizeUsecase.ts</text>
</g>
<!-- infrastructure/adapters/web/Authorizer.ts&#45;&gt;usecases/AuthorizeUsecase.ts -->
<g id="edge6" class="edge">
<title>infrastructure/adapters/web/Authorizer.ts&#45;&gt;usecases/AuthorizeUsecase.ts</title>
<path fill="none" stroke="#757575" d="M582.09,-32.5C610.09,-32.5 639.47,-32.5 666.66,-32.5"/>
<polygon fill="#757575" stroke="#757575" points="666.97,-36 676.97,-32.5 666.97,-29 666.97,-36"/>
</g>
<!-- usecases/AuthorizeUsecase.ts&#45;&gt;application/errors.ts -->
<g id="edge16" class="edge">
<title>usecases/AuthorizeUsecase.ts&#45;&gt;application/errors.ts</title>
<path fill="none" stroke="#757575" d="M878.39,-38.9C898.14,-41.89 918.48,-46.22 937,-52.5 954.54,-58.45 955.76,-66.72 973,-73.5 1005.09,-86.13 1042.1,-95.26 1073.99,-101.58"/>
<polygon fill="#757575" stroke="#757575" points="1073.67,-105.08 1084.15,-103.54 1074.99,-98.21 1073.67,-105.08"/>
</g>
<!-- infrastructure/frameworks/authorization/generatePolicy.ts -->
<g id="node11" class="node">
<title>infrastructure/frameworks/authorization/generatePolicy.ts</title>
<path fill="none" stroke="#cfffac" d="M1322.33,-64C1322.33,-64 980.67,-64 980.67,-64 976.83,-64 973,-60.17 973,-56.33 973,-56.33 973,-48.67 973,-48.67 973,-44.83 976.83,-41 980.67,-41 980.67,-41 1322.33,-41 1322.33,-41 1326.17,-41 1330,-44.83 1330,-48.67 1330,-48.67 1330,-56.33 1330,-56.33 1330,-60.17 1326.17,-64 1322.33,-64"/>
<text text-anchor="middle" x="1151.5" y="-48.8" font-family="Arial" font-size="14.00" fill="#cfffac">infrastructure/frameworks/authorization/generatePolicy.ts</text>
</g>
<!-- usecases/AuthorizeUsecase.ts&#45;&gt;infrastructure/frameworks/authorization/generatePolicy.ts -->
<g id="edge17" class="edge">
<title>usecases/AuthorizeUsecase.ts&#45;&gt;infrastructure/frameworks/authorization/generatePolicy.ts</title>
<path fill="none" stroke="#757575" d="M878.19,-37.86C904.37,-39.27 933.49,-40.83 962.66,-42.4"/>
<polygon fill="#757575" stroke="#757575" points="962.8,-45.91 972.98,-42.96 963.18,-38.92 962.8,-45.91"/>
</g>
<!-- infrastructure/frameworks/authorization/handleCors.ts -->
<g id="node12" class="node">
<title>infrastructure/frameworks/authorization/handleCors.ts</title>
<path fill="none" stroke="#cfffac" d="M1312.83,-23C1312.83,-23 990.17,-23 990.17,-23 986.33,-23 982.5,-19.17 982.5,-15.33 982.5,-15.33 982.5,-7.67 982.5,-7.67 982.5,-3.83 986.33,0 990.17,0 990.17,0 1312.83,0 1312.83,0 1316.67,0 1320.5,-3.83 1320.5,-7.67 1320.5,-7.67 1320.5,-15.33 1320.5,-15.33 1320.5,-19.17 1316.67,-23 1312.83,-23"/>
<text text-anchor="middle" x="1151.5" y="-7.8" font-family="Arial" font-size="14.00" fill="#cfffac">infrastructure/frameworks/authorization/handleCors.ts</text>
</g>
<!-- usecases/AuthorizeUsecase.ts&#45;&gt;infrastructure/frameworks/authorization/handleCors.ts -->
<g id="edge18" class="edge">
<title>usecases/AuthorizeUsecase.ts&#45;&gt;infrastructure/frameworks/authorization/handleCors.ts</title>
<path fill="none" stroke="#757575" d="M878.19,-26.87C907.25,-25.23 939.92,-23.39 972.28,-21.56"/>
<polygon fill="#757575" stroke="#757575" points="972.52,-25.05 982.31,-20.99 972.13,-18.06 972.52,-25.05"/>
</g>
<!-- infrastructure/adapters/web/GetSomething.ts -->
<g id="node9" class="node">
<title>infrastructure/adapters/web/GetSomething.ts</title>
<path fill="none" stroke="#c6c5fe" d="M278.83,-196C278.83,-196 8.17,-196 8.17,-196 4.33,-196 0.5,-192.17 0.5,-188.33 0.5,-188.33 0.5,-180.67 0.5,-180.67 0.5,-176.83 4.33,-173 8.17,-173 8.17,-173 278.83,-173 278.83,-173 282.67,-173 286.5,-176.83 286.5,-180.67 286.5,-180.67 286.5,-188.33 286.5,-188.33 286.5,-192.17 282.67,-196 278.83,-196"/>
<text text-anchor="middle" x="143.5" y="-180.8" font-family="Arial" font-size="14.00" fill="#c6c5fe">infrastructure/adapters/web/GetSomething.ts</text>
</g>
<!-- infrastructure/adapters/web/GetSomething.ts&#45;&gt;application/makeDTO.ts -->
<g id="edge7" class="edge">
<title>infrastructure/adapters/web/GetSomething.ts&#45;&gt;application/makeDTO.ts</title>
<path fill="none" stroke="#757575" d="M220.03,-172.98C242.01,-168.46 265.8,-162.41 287,-154.5 304.15,-148.1 305.71,-140.51 323,-134.5 335.17,-130.27 348.28,-126.88 361.32,-124.17"/>
<polygon fill="#757575" stroke="#757575" points="362.12,-127.58 371.26,-122.23 360.78,-120.71 362.12,-127.58"/>
</g>
<!-- infrastructure/adapters/web/GetSomething.ts&#45;&gt;infrastructure/frameworks/end.ts -->
<g id="edge8" class="edge">
<title>infrastructure/adapters/web/GetSomething.ts&#45;&gt;infrastructure/frameworks/end.ts</title>
<path fill="none" stroke="#757575" d="M286.77,-189.6C303.65,-190.2 320.72,-190.81 337.15,-191.4"/>
<polygon fill="#757575" stroke="#757575" points="337.17,-194.91 347.28,-191.77 337.42,-187.91 337.17,-194.91"/>
</g>
<!-- infrastructure/adapters/web/GetSomething.ts&#45;&gt;infrastructure/frameworks/getRepo.ts -->
<g id="edge9" class="edge">
<title>infrastructure/adapters/web/GetSomething.ts&#45;&gt;infrastructure/frameworks/getRepo.ts</title>
<path fill="none" stroke="#757575" d="M262.32,-172.99C282.35,-171.03 303.24,-168.99 323.53,-167.01"/>
<polygon fill="#757575" stroke="#757575" points="324.13,-170.46 333.75,-166.01 323.45,-163.5 324.13,-170.46"/>
</g>
<!-- usecases/GetSomethingUsecase.ts -->
<g id="node10" class="node">
<title>usecases/GetSomethingUsecase.ts</title>
<path fill="none" stroke="#c6c5fe" d="M885.83,-247C885.83,-247 669.17,-247 669.17,-247 665.33,-247 661.5,-243.17 661.5,-239.33 661.5,-239.33 661.5,-231.67 661.5,-231.67 661.5,-227.83 665.33,-224 669.17,-224 669.17,-224 885.83,-224 885.83,-224 889.67,-224 893.5,-227.83 893.5,-231.67 893.5,-231.67 893.5,-239.33 893.5,-239.33 893.5,-243.17 889.67,-247 885.83,-247"/>
<text text-anchor="middle" x="777.5" y="-231.8" font-family="Arial" font-size="14.00" fill="#c6c5fe">usecases/GetSomethingUsecase.ts</text>
</g>
<!-- infrastructure/adapters/web/GetSomething.ts&#45;&gt;usecases/GetSomethingUsecase.ts -->
<g id="edge10" class="edge">
<title>infrastructure/adapters/web/GetSomething.ts&#45;&gt;usecases/GetSomethingUsecase.ts</title>
<path fill="none" stroke="#757575" d="M198.12,-196.07C233.42,-203.21 280.75,-211.85 323,-216.5 433.42,-228.65 559.74,-233.18 650.97,-234.8"/>
<polygon fill="#757575" stroke="#757575" points="651.02,-238.3 661.08,-234.97 651.14,-231.3 651.02,-238.3"/>
</g>
<!-- usecases/GetSomethingUsecase.ts&#45;&gt;application/errors.ts -->
<g id="edge19" class="edge">
<title>usecases/GetSomethingUsecase.ts&#45;&gt;application/errors.ts</title>
<path fill="none" stroke="#757575" d="M893.69,-231C908.8,-227.56 923.65,-222.59 937,-215.5 958.42,-204.13 952.86,-188 973,-174.5 1006.25,-152.2 1048.48,-137.26 1083.4,-127.74"/>
<polygon fill="#757575" stroke="#757575" points="1084.73,-131.01 1093.51,-125.08 1082.95,-124.24 1084.73,-131.01"/>
</g>
<!-- infrastructure/frameworks/getCleanedItems.ts -->
<g id="node13" class="node">
<title>infrastructure/frameworks/getCleanedItems.ts</title>
<path fill="none" stroke="#cfffac" d="M1288.83,-206C1288.83,-206 1014.17,-206 1014.17,-206 1010.33,-206 1006.5,-202.17 1006.5,-198.33 1006.5,-198.33 1006.5,-190.67 1006.5,-190.67 1006.5,-186.83 1010.33,-183 1014.17,-183 1014.17,-183 1288.83,-183 1288.83,-183 1292.67,-183 1296.5,-186.83 1296.5,-190.67 1296.5,-190.67 1296.5,-198.33 1296.5,-198.33 1296.5,-202.17 1292.67,-206 1288.83,-206"/>
<text text-anchor="middle" x="1151.5" y="-190.8" font-family="Arial" font-size="14.00" fill="#cfffac">infrastructure/frameworks/getCleanedItems.ts</text>
</g>
<!-- infrastructure/repositories/DynamoDbRepository.ts&#45;&gt;application/errors.ts -->
<g id="edge13" class="edge">
<title>infrastructure/repositories/DynamoDbRepository.ts&#45;&gt;application/errors.ts</title>
<path fill="none" stroke="#757575" d="M887.57,-182.97C904.2,-180.56 921.1,-177.75 937,-174.5 996.56,-162.31 1063.77,-141.99 1106.59,-128.18"/>
<polygon fill="#757575" stroke="#757575" points="1107.71,-131.5 1116.14,-125.08 1105.55,-124.84 1107.71,-131.5"/>
</g>
<!-- infrastructure/repositories/DynamoDbRepository.ts&#45;&gt;infrastructure/frameworks/getCleanedItems.ts -->
<g id="edge14" class="edge">
<title>infrastructure/repositories/DynamoDbRepository.ts&#45;&gt;infrastructure/frameworks/getCleanedItems.ts</title>
<path fill="none" stroke="#757575" d="M937.07,-194.5C956.68,-194.5 976.7,-194.5 996.23,-194.5"/>
<polygon fill="#757575" stroke="#757575" points="996.4,-198 1006.4,-194.5 996.4,-191 996.4,-198"/>
</g>
</g>
</svg>
