<?xml version="1.0" encoding="UTF-8" standalone="no"?>
<!DOCTYPE svg PUBLIC "-//W3C//DTD SVG 1.1//EN"
 "http://www.w3.org/Graphics/SVG/1.1/DTD/svg11.dtd">
<!-- Generated by graphviz version 6.0.1 (20220911.1526)
 -->
<!-- Title: G Pages: 1 -->
<svg width="1373pt" height="279pt"
 viewBox="0.00 0.00 1373.20 279.20" xmlns="http://www.w3.org/2000/svg" xmlns:xlink="http://www.w3.org/1999/xlink">
<g id="graph0" class="graph" transform="scale(1 1) rotate(0) translate(21.6 257.6)">
<title>G</title>
<polygon fill="#111111" stroke="none" points="-21.6,21.6 -21.6,-257.6 1351.6,-257.6 1351.6,21.6 -21.6,21.6"/>
<!-- application/errors.ts -->
<g id="node1" class="node">
<title>application/errors.ts</title>
<path fill="none" stroke="#cfffac" d="M1210.83,-125C1210.83,-125 1092.17,-125 1092.17,-125 1088.33,-125 1084.5,-121.17 1084.5,-117.33 1084.5,-117.33 1084.5,-109.67 1084.5,-109.67 1084.5,-105.83 1088.33,-102 1092.17,-102 1092.17,-102 1210.83,-102 1210.83,-102 1214.67,-102 1218.5,-105.83 1218.5,-109.67 1218.5,-109.67 1218.5,-117.33 1218.5,-117.33 1218.5,-121.17 1214.67,-125 1210.83,-125"/>
<text text-anchor="middle" x="1151.5" y="-109.8" font-family="Arial" font-size="14.00" fill="#cfffac">application/errors.ts</text>
</g>
<!-- application/makeInputDTO.ts -->
<g id="node2" class="node">
<title>application/makeInputDTO.ts</title>
<path fill="none" stroke="#cfffac" d="M540.83,-216C540.83,-216 364.17,-216 364.17,-216 360.33,-216 356.5,-212.17 356.5,-208.33 356.5,-208.33 356.5,-200.67 356.5,-200.67 356.5,-196.83 360.33,-193 364.17,-193 364.17,-193 540.83,-193 540.83,-193 544.67,-193 548.5,-196.83 548.5,-200.67 548.5,-200.67 548.5,-208.33 548.5,-208.33 548.5,-212.17 544.67,-216 540.83,-216"/>
<text text-anchor="middle" x="452.5" y="-200.8" font-family="Arial" font-size="14.00" fill="#cfffac">application/makeInputDTO.ts</text>
</g>
<!-- infrastructure/adapters/web/AddSomething.ts -->
<g id="node3" class="node">
<title>infrastructure/adapters/web/AddSomething.ts</title>
<path fill="none" stroke="#c6c5fe" d="M279.33,-205C279.33,-205 7.67,-205 7.67,-205 3.83,-205 0,-201.17 0,-197.33 0,-197.33 0,-189.67 0,-189.67 0,-185.83 3.83,-182 7.67,-182 7.67,-182 279.33,-182 279.33,-182 283.17,-182 287,-185.83 287,-189.67 287,-189.67 287,-197.33 287,-197.33 287,-201.17 283.17,-205 279.33,-205"/>
<text text-anchor="middle" x="143.5" y="-189.8" font-family="Arial" font-size="14.00" fill="#c6c5fe">infrastructure/adapters/web/AddSomething.ts</text>
</g>
<!-- infrastructure/adapters/web/AddSomething.ts&#45;&gt;application/makeInputDTO.ts -->
<g id="edge1" class="edge">
<title>infrastructure/adapters/web/AddSomething.ts&#45;&gt;application/makeInputDTO.ts</title>
<path fill="none" stroke="#757575" d="M287.21,-198.61C307.12,-199.33 327.28,-200.05 346.32,-200.73"/>
<polygon fill="#757575" stroke="#757575" points="346.36,-204.23 356.48,-201.1 346.61,-197.24 346.36,-204.23"/>
</g>
<!-- infrastructure/frameworks/end.ts -->
<g id="node4" class="node">
<title>infrastructure/frameworks/end.ts</title>
<path fill="none" stroke="#cfffac" d="M549.83,-175C549.83,-175 355.17,-175 355.17,-175 351.33,-175 347.5,-171.17 347.5,-167.33 347.5,-167.33 347.5,-159.67 347.5,-159.67 347.5,-155.83 351.33,-152 355.17,-152 355.17,-152 549.83,-152 549.83,-152 553.67,-152 557.5,-155.83 557.5,-159.67 557.5,-159.67 557.5,-167.33 557.5,-167.33 557.5,-171.17 553.67,-175 549.83,-175"/>
<text text-anchor="middle" x="452.5" y="-159.8" font-family="Arial" font-size="14.00" fill="#cfffac">infrastructure/frameworks/end.ts</text>
</g>
<!-- infrastructure/adapters/web/AddSomething.ts&#45;&gt;infrastructure/frameworks/end.ts -->
<g id="edge2" class="edge">
<title>infrastructure/adapters/web/AddSomething.ts&#45;&gt;infrastructure/frameworks/end.ts</title>
<path fill="none" stroke="#757575" d="M262.32,-181.99C286.84,-179.59 312.65,-177.07 337.04,-174.68"/>
<polygon fill="#757575" stroke="#757575" points="337.43,-178.16 347.04,-173.71 336.75,-171.2 337.43,-178.16"/>
</g>
<!-- infrastructure/frameworks/getRepo.ts -->
<g id="node5" class="node">
<title>infrastructure/frameworks/getRepo.ts</title>
<path fill="none" stroke="#c6c5fe" d="M564.33,-134C564.33,-134 340.67,-134 340.67,-134 336.83,-134 333,-130.17 333,-126.33 333,-126.33 333,-118.67 333,-118.67 333,-114.83 336.83,-111 340.67,-111 340.67,-111 564.33,-111 564.33,-111 568.17,-111 572,-114.83 572,-118.67 572,-118.67 572,-126.33 572,-126.33 572,-130.17 568.17,-134 564.33,-134"/>
<text text-anchor="middle" x="452.5" y="-118.8" font-family="Arial" font-size="14.00" fill="#c6c5fe">infrastructure/frameworks/getRepo.ts</text>
</g>
<!-- infrastructure/adapters/web/AddSomething.ts&#45;&gt;infrastructure/frameworks/getRepo.ts -->
<g id="edge3" class="edge">
<title>infrastructure/adapters/web/AddSomething.ts&#45;&gt;infrastructure/frameworks/getRepo.ts</title>
<path fill="none" stroke="#757575" d="M220.03,-181.98C242.01,-177.46 265.8,-171.41 287,-163.5 304.15,-157.1 305.71,-149.51 323,-143.5 330.83,-140.78 339.05,-138.41 347.39,-136.34"/>
<polygon fill="#757575" stroke="#757575" points="348.27,-139.73 357.22,-134.05 346.68,-132.91 348.27,-139.73"/>
</g>
<!-- usecases/AddSomethingUsecase.ts -->
<g id="node6" class="node">
<title>usecases/AddSomethingUsecase.ts</title>
<path fill="none" stroke="#c6c5fe" d="M886.33,-236C886.33,-236 668.67,-236 668.67,-236 664.83,-236 661,-232.17 661,-228.33 661,-228.33 661,-220.67 661,-220.67 661,-216.83 664.83,-213 668.67,-213 668.67,-213 886.33,-213 886.33,-213 890.17,-213 894,-216.83 894,-220.67 894,-220.67 894,-228.33 894,-228.33 894,-232.17 890.17,-236 886.33,-236"/>
<text text-anchor="middle" x="777.5" y="-220.8" font-family="Arial" font-size="14.00" fill="#c6c5fe">usecases/AddSomethingUsecase.ts</text>
</g>
<!-- infrastructure/adapters/web/AddSomething.ts&#45;&gt;usecases/AddSomethingUsecase.ts -->
<g id="edge4" class="edge">
<title>infrastructure/adapters/web/AddSomething.ts&#45;&gt;usecases/AddSomethingUsecase.ts</title>
<path fill="none" stroke="#757575" d="M194.96,-205.01C230.53,-212.52 279.41,-221.62 323,-225.5 433.36,-235.31 559.43,-234.04 650.58,-230.9"/>
<polygon fill="#757575" stroke="#757575" points="650.82,-234.39 660.68,-230.53 650.57,-227.39 650.82,-234.39"/>
</g>
<!-- infrastructure/repositories/DynamoDbRepository.ts -->
<g id="node14" class="node">
<title>infrastructure/repositories/DynamoDbRepository.ts</title>
<path fill="none" stroke="#c6c5fe" d="M929.33,-176C929.33,-176 625.67,-176 625.67,-176 621.83,-176 618,-172.17 618,-168.33 618,-168.33 618,-160.67 618,-160.67 618,-156.83 621.83,-153 625.67,-153 625.67,-153 929.33,-153 929.33,-153 933.17,-153 937,-156.83 937,-160.67 937,-160.67 937,-168.33 937,-168.33 937,-172.17 933.17,-176 929.33,-176"/>
<text text-anchor="middle" x="777.5" y="-160.8" font-family="Arial" font-size="14.00" fill="#c6c5fe">infrastructure/repositories/DynamoDbRepository.ts</text>
</g>
<!-- infrastructure/frameworks/getRepo.ts&#45;&gt;infrastructure/repositories/DynamoDbRepository.ts -->
<g id="edge10" class="edge">
<title>infrastructure/frameworks/getRepo.ts&#45;&gt;infrastructure/repositories/DynamoDbRepository.ts</title>
<path fill="none" stroke="#757575" d="M538.86,-134.04C564.32,-137.45 592.28,-141.16 618,-144.5 636.19,-146.86 655.55,-149.34 674.27,-151.71"/>
<polygon fill="#757575" stroke="#757575" points="673.93,-155.2 684.29,-152.98 674.81,-148.25 673.93,-155.2"/>
</g>
<!-- infrastructure/repositories/LocalRepository.ts -->
<g id="node15" class="node">
<title>infrastructure/repositories/LocalRepository.ts</title>
<path fill="none" stroke="#cfffac" d="M911.33,-135C911.33,-135 643.67,-135 643.67,-135 639.83,-135 636,-131.17 636,-127.33 636,-127.33 636,-119.67 636,-119.67 636,-115.83 639.83,-112 643.67,-112 643.67,-112 911.33,-112 911.33,-112 915.17,-112 919,-115.83 919,-119.67 919,-119.67 919,-127.33 919,-127.33 919,-131.17 915.17,-135 911.33,-135"/>
<text text-anchor="middle" x="777.5" y="-119.8" font-family="Arial" font-size="14.00" fill="#cfffac">infrastructure/repositories/LocalRepository.ts</text>
</g>
<!-- infrastructure/frameworks/getRepo.ts&#45;&gt;infrastructure/repositories/LocalRepository.ts -->
<g id="edge11" class="edge">
<title>infrastructure/frameworks/getRepo.ts&#45;&gt;infrastructure/repositories/LocalRepository.ts</title>
<path fill="none" stroke="#757575" d="M572.4,-122.87C589.69,-122.92 607.68,-122.98 625.51,-123.03"/>
<polygon fill="#757575" stroke="#757575" points="625.96,-126.53 635.97,-123.06 625.98,-119.53 625.96,-126.53"/>
</g>
<!-- usecases/AddSomethingUsecase.ts&#45;&gt;application/errors.ts -->
<g id="edge14" class="edge">
<title>usecases/AddSomethingUsecase.ts&#45;&gt;application/errors.ts</title>
<path fill="none" stroke="#757575" d="M865.74,-212.98C890.01,-207.2 915.56,-198.52 937,-185.5 957.73,-172.91 951.85,-156.37 973,-144.5 1003.53,-127.36 1041.29,-119.28 1074.13,-115.62"/>
<polygon fill="#757575" stroke="#757575" points="1074.54,-119.09 1084.15,-114.62 1073.85,-112.13 1074.54,-119.09"/>
</g>
<!-- infrastructure/adapters/web/Authorizer.ts -->
<g id="node7" class="node">
<title>infrastructure/adapters/web/Authorizer.ts</title>
<path fill="none" stroke="#c6c5fe" d="M574.33,-53C574.33,-53 330.67,-53 330.67,-53 326.83,-53 323,-49.17 323,-45.33 323,-45.33 323,-37.67 323,-37.67 323,-33.83 326.83,-30 330.67,-30 330.67,-30 574.33,-30 574.33,-30 578.17,-30 582,-33.83 582,-37.67 582,-37.67 582,-45.33 582,-45.33 582,-49.17 578.17,-53 574.33,-53"/>
<text text-anchor="middle" x="452.5" y="-37.8" font-family="Arial" font-size="14.00" fill="#c6c5fe">infrastructure/adapters/web/Authorizer.ts</text>
</g>
<!-- usecases/AuthorizeUsecase.ts -->
<g id="node8" class="node">
<title>usecases/AuthorizeUsecase.ts</title>
<path fill="none" stroke="#c6c5fe" d="M870.33,-53C870.33,-53 684.67,-53 684.67,-53 680.83,-53 677,-49.17 677,-45.33 677,-45.33 677,-37.67 677,-37.67 677,-33.83 680.83,-30 684.67,-30 684.67,-30 870.33,-30 870.33,-30 874.17,-30 878,-33.83 878,-37.67 878,-37.67 878,-45.33 878,-45.33 878,-49.17 874.17,-53 870.33,-53"/>
<text text-anchor="middle" x="777.5" y="-37.8" font-family="Arial" font-size="14.00" fill="#c6c5fe">usecases/AuthorizeUsecase.ts</text>
</g>
<!-- infrastructure/adapters/web/Authorizer.ts&#45;&gt;usecases/AuthorizeUsecase.ts -->
<g id="edge5" class="edge">
<title>infrastructure/adapters/web/Authorizer.ts&#45;&gt;usecases/AuthorizeUsecase.ts</title>
<path fill="none" stroke="#757575" d="M582.09,-41.5C610.09,-41.5 639.47,-41.5 666.66,-41.5"/>
<polygon fill="#757575" stroke="#757575" points="666.97,-45 676.97,-41.5 666.97,-38 666.97,-45"/>
</g>
<!-- usecases/AuthorizeUsecase.ts&#45;&gt;application/errors.ts -->
<g id="edge15" class="edge">
<title>usecases/AuthorizeUsecase.ts&#45;&gt;application/errors.ts</title>
<path fill="none" stroke="#757575" d="M878.29,-51.45C897.85,-54.14 918.15,-57.46 937,-61.5 953.36,-65 956.84,-68.17 973,-72.5 1010.4,-82.52 1052.62,-92.33 1086.5,-99.84"/>
<polygon fill="#757575" stroke="#757575" points="1085.75,-103.26 1096.27,-102 1087.26,-96.43 1085.75,-103.26"/>
</g>
<!-- infrastructure/frameworks/authorization/generatePolicy.ts -->
<g id="node11" class="node">
<title>infrastructure/frameworks/authorization/generatePolicy.ts</title>
<path fill="none" stroke="#cfffac" d="M1322.33,-23C1322.33,-23 980.67,-23 980.67,-23 976.83,-23 973,-19.17 973,-15.33 973,-15.33 973,-7.67 973,-7.67 973,-3.83 976.83,0 980.67,0 980.67,0 1322.33,0 1322.33,0 1326.17,0 1330,-3.83 1330,-7.67 1330,-7.67 1330,-15.33 1330,-15.33 1330,-19.17 1326.17,-23 1322.33,-23"/>
<text text-anchor="middle" x="1151.5" y="-7.8" font-family="Arial" font-size="14.00" fill="#cfffac">infrastructure/frameworks/authorization/generatePolicy.ts</text>
</g>
<!-- usecases/AuthorizeUsecase.ts&#45;&gt;infrastructure/frameworks/authorization/generatePolicy.ts -->
<g id="edge16" class="edge">
<title>usecases/AuthorizeUsecase.ts&#45;&gt;infrastructure/frameworks/authorization/generatePolicy.ts</title>
<path fill="none" stroke="#757575" d="M878.19,-33.46C914.89,-30.5 957.36,-27.08 997.68,-23.82"/>
<polygon fill="#757575" stroke="#757575" points="998.19,-27.29 1007.88,-23 997.63,-20.32 998.19,-27.29"/>
</g>
<!-- infrastructure/frameworks/authorization/handleCors.ts -->
<g id="node12" class="node">
<title>infrastructure/frameworks/authorization/handleCors.ts</title>
<path fill="none" stroke="#cfffac" d="M1312.83,-64C1312.83,-64 990.17,-64 990.17,-64 986.33,-64 982.5,-60.17 982.5,-56.33 982.5,-56.33 982.5,-48.67 982.5,-48.67 982.5,-44.83 986.33,-41 990.17,-41 990.17,-41 1312.83,-41 1312.83,-41 1316.67,-41 1320.5,-44.83 1320.5,-48.67 1320.5,-48.67 1320.5,-56.33 1320.5,-56.33 1320.5,-60.17 1316.67,-64 1312.83,-64"/>
<text text-anchor="middle" x="1151.5" y="-48.8" font-family="Arial" font-size="14.00" fill="#cfffac">infrastructure/frameworks/authorization/handleCors.ts</text>
</g>
<!-- usecases/AuthorizeUsecase.ts&#45;&gt;infrastructure/frameworks/authorization/handleCors.ts -->
<g id="edge17" class="edge">
<title>usecases/AuthorizeUsecase.ts&#45;&gt;infrastructure/frameworks/authorization/handleCors.ts</title>
<path fill="none" stroke="#757575" d="M878.19,-44.45C907.25,-45.31 939.92,-46.27 972.28,-47.23"/>
<polygon fill="#757575" stroke="#757575" points="972.21,-50.73 982.31,-47.53 972.42,-43.73 972.21,-50.73"/>
</g>
<!-- infrastructure/adapters/web/GetSomething.ts -->
<g id="node9" class="node">
<title>infrastructure/adapters/web/GetSomething.ts</title>
<path fill="none" stroke="#c6c5fe" d="M278.83,-154C278.83,-154 8.17,-154 8.17,-154 4.33,-154 0.5,-150.17 0.5,-146.33 0.5,-146.33 0.5,-138.67 0.5,-138.67 0.5,-134.83 4.33,-131 8.17,-131 8.17,-131 278.83,-131 278.83,-131 282.67,-131 286.5,-134.83 286.5,-138.67 286.5,-138.67 286.5,-146.33 286.5,-146.33 286.5,-150.17 282.67,-154 278.83,-154"/>
<text text-anchor="middle" x="143.5" y="-138.8" font-family="Arial" font-size="14.00" fill="#c6c5fe">infrastructure/adapters/web/GetSomething.ts</text>
</g>
<!-- infrastructure/adapters/web/GetSomething.ts&#45;&gt;application/makeInputDTO.ts -->
<g id="edge6" class="edge">
<title>infrastructure/adapters/web/GetSomething.ts&#45;&gt;application/makeInputDTO.ts</title>
<path fill="none" stroke="#757575" d="M202.65,-154.02C228.58,-159.45 259.44,-166.3 287,-173.5 303.19,-177.73 306.69,-180.76 323,-184.5 333.72,-186.96 345.02,-189.21 356.28,-191.23"/>
<polygon fill="#757575" stroke="#757575" points="355.7,-194.69 366.16,-192.96 356.91,-187.79 355.7,-194.69"/>
</g>
<!-- infrastructure/adapters/web/GetSomething.ts&#45;&gt;infrastructure/frameworks/end.ts -->
<g id="edge7" class="edge">
<title>infrastructure/adapters/web/GetSomething.ts&#45;&gt;infrastructure/frameworks/end.ts</title>
<path fill="none" stroke="#757575" d="M286.77,-152.23C303.65,-153.39 320.72,-154.55 337.15,-155.68"/>
<polygon fill="#757575" stroke="#757575" points="337.07,-159.18 347.28,-156.37 337.55,-152.2 337.07,-159.18"/>
</g>
<!-- infrastructure/adapters/web/GetSomething.ts&#45;&gt;infrastructure/frameworks/getRepo.ts -->
<g id="edge8" class="edge">
<title>infrastructure/adapters/web/GetSomething.ts&#45;&gt;infrastructure/frameworks/getRepo.ts</title>
<path fill="none" stroke="#757575" d="M286.77,-133.23C298.65,-132.46 310.63,-131.68 322.42,-130.91"/>
<polygon fill="#757575" stroke="#757575" points="322.96,-134.38 332.71,-130.24 322.5,-127.4 322.96,-134.38"/>
</g>
<!-- usecases/GetSomethingUsecase.ts -->
<g id="node10" class="node">
<title>usecases/GetSomethingUsecase.ts</title>
<path fill="none" stroke="#c6c5fe" d="M885.83,-94C885.83,-94 669.17,-94 669.17,-94 665.33,-94 661.5,-90.17 661.5,-86.33 661.5,-86.33 661.5,-78.67 661.5,-78.67 661.5,-74.83 665.33,-71 669.17,-71 669.17,-71 885.83,-71 885.83,-71 889.67,-71 893.5,-74.83 893.5,-78.67 893.5,-78.67 893.5,-86.33 893.5,-86.33 893.5,-90.17 889.67,-94 885.83,-94"/>
<text text-anchor="middle" x="777.5" y="-78.8" font-family="Arial" font-size="14.00" fill="#c6c5fe">usecases/GetSomethingUsecase.ts</text>
</g>
<!-- infrastructure/adapters/web/GetSomething.ts&#45;&gt;usecases/GetSomethingUsecase.ts -->
<g id="edge9" class="edge">
<title>infrastructure/adapters/web/GetSomething.ts&#45;&gt;usecases/GetSomethingUsecase.ts</title>
<path fill="none" stroke="#757575" d="M186.32,-130.93C222.26,-121.52 275.62,-108.8 323,-102.5 433.31,-87.82 559.91,-83.25 651.26,-82.11"/>
<polygon fill="#757575" stroke="#757575" points="651.42,-85.6 661.38,-81.99 651.34,-78.6 651.42,-85.6"/>
</g>
<!-- usecases/GetSomethingUsecase.ts&#45;&gt;application/errors.ts -->
<g id="edge18" class="edge">
<title>usecases/GetSomethingUsecase.ts&#45;&gt;application/errors.ts</title>
<path fill="none" stroke="#757575" d="M893.66,-92.1C952.37,-96.99 1022.16,-102.8 1074.16,-107.14"/>
<polygon fill="#757575" stroke="#757575" points="1074.06,-110.64 1084.31,-107.98 1074.64,-103.67 1074.06,-110.64"/>
</g>
<!-- infrastructure/frameworks/getCleanedItems.ts -->
<g id="node13" class="node">
<title>infrastructure/frameworks/getCleanedItems.ts</title>
<path fill="none" stroke="#cfffac" d="M1288.83,-176C1288.83,-176 1014.17,-176 1014.17,-176 1010.33,-176 1006.5,-172.17 1006.5,-168.33 1006.5,-168.33 1006.5,-160.67 1006.5,-160.67 1006.5,-156.83 1010.33,-153 1014.17,-153 1014.17,-153 1288.83,-153 1288.83,-153 1292.67,-153 1296.5,-156.83 1296.5,-160.67 1296.5,-160.67 1296.5,-168.33 1296.5,-168.33 1296.5,-172.17 1292.67,-176 1288.83,-176"/>
<text text-anchor="middle" x="1151.5" y="-160.8" font-family="Arial" font-size="14.00" fill="#cfffac">infrastructure/frameworks/getCleanedItems.ts</text>
</g>
<!-- infrastructure/repositories/DynamoDbRepository.ts&#45;&gt;application/errors.ts -->
<g id="edge12" class="edge">
<title>infrastructure/repositories/DynamoDbRepository.ts&#45;&gt;application/errors.ts</title>
<path fill="none" stroke="#757575" d="M871.99,-153C893.36,-150.29 915.97,-147.35 937,-144.5 982.51,-138.33 1033.4,-130.95 1074.08,-124.95"/>
<polygon fill="#757575" stroke="#757575" points="1074.81,-128.38 1084.19,-123.45 1073.78,-121.45 1074.81,-128.38"/>
</g>
<!-- infrastructure/repositories/DynamoDbRepository.ts&#45;&gt;infrastructure/frameworks/getCleanedItems.ts -->
<g id="edge13" class="edge">
<title>infrastructure/repositories/DynamoDbRepository.ts&#45;&gt;infrastructure/frameworks/getCleanedItems.ts</title>
<path fill="none" stroke="#757575" d="M937.07,-164.5C956.68,-164.5 976.7,-164.5 996.23,-164.5"/>
<polygon fill="#757575" stroke="#757575" points="996.4,-168 1006.4,-164.5 996.4,-161 996.4,-168"/>
</g>
</g>
</svg>
